<svg xmlns="http://www.w3.org/2000/svg" viewBox="0 0 1024 1024" role="img" aria-label="Monderman">
  <defs>
    <linearGradient id="teal-field" x1="512" y1="0" x2="512" y2="1024" gradientUnits="userSpaceOnUse">
      <stop offset="0" stop-color="#0F5B63"/>
      <stop offset="0.55" stop-color="#0A474E"/>
      <stop offset="1" stop-color="#06363B"/>
    </linearGradient>
    <radialGradient id="upper-lift" cx="0" cy="0" r="1" gradientUnits="userSpaceOnUse" gradientTransform="translate(456 174) rotate(90) scale(570 700)">
      <stop offset="0" stop-color="#237781" stop-opacity="0.18"/>
      <stop offset="0.58" stop-color="#176771" stop-opacity="0.045"/>
      <stop offset="1" stop-color="#176771" stop-opacity="0"/>
    </radialGradient>
    <linearGradient id="lower-depth" x1="512" y1="580" x2="512" y2="1024" gradientUnits="userSpaceOnUse">
      <stop offset="0" stop-color="#001D21" stop-opacity="0"/>
      <stop offset="1" stop-color="#001D21" stop-opacity="0.10"/>
    </linearGradient>
    <radialGradient id="edge-vignette" cx="0" cy="0" r="1" gradientUnits="userSpaceOnUse" gradientTransform="translate(512 470) rotate(90) scale(770)">
      <stop offset="0.7" stop-color="#001D21" stop-opacity="0"/>
      <stop offset="1" stop-color="#001D21" stop-opacity="0.055"/>
    </radialGradient>
  </defs>
  <rect width="1024" height="1024" fill="url(#teal-field)"/>
  <rect width="1024" height="1024" fill="url(#upper-lift)"/>
  <rect width="1024" height="1024" fill="url(#lower-depth)"/>
  <rect width="1024" height="1024" fill="url(#edge-vignette)"/>
  <g fill="none" stroke="#FFFFFF" stroke-width="44" stroke-linecap="round" stroke-linejoin="round">
    <path d="M198 287L355 180L512 260L669 180L826 287V812C826 820 826 825 820 829L681 738C676 735 672 732 669 732C666 732 662 735 657 738L524 822C519 825 515 829 512 829C509 829 505 825 500 822L367 738C362 735 358 732 355 732C352 732 348 735 343 738L204 829C198 825 198 820 198 812Z"/>
    <path d="M355 180V732M512 260V829M669 180V732"/>
  </g>
</svg>
