<svg xmlns="http://www.w3.org/2000/svg">
  <!-- Every category uses the same full folded-map skeleton. Only the route and guides vary. -->
  <symbol id="motif-insight" viewBox="0 0 420 320">
    <path d="M52 88 132 34 212 75 292 34 372 88V278L292 233 212 278 132 233 52 278Z" fill="currentColor" opacity=".035"/>
    <g fill="none" stroke="currentColor" vector-effect="non-scaling-stroke">
      <path d="M52 88 132 34 212 75 292 34 372 88V278L292 233 212 278 132 233 52 278Z M132 34V233M212 75V278M292 34V233" stroke-width="1.25" stroke-linecap="round" stroke-linejoin="round"/>
      <path d="M20 144H405M20 206H405" stroke-width="1" stroke-dasharray="3 7" opacity=".62"/>
    </g>
    <path d="M15 230H104V168H180L212 188H268V128H389" fill="none" stroke="#FFFFFF" stroke-width="1.8" stroke-linecap="round" stroke-linejoin="round" vector-effect="non-scaling-stroke"/>
    <circle cx="104" cy="168" r="3" fill="#FFFFFF"/>
    <circle cx="268" cy="128" r="5" fill="#C9821F"/>
  </symbol>

  <symbol id="motif-brief" viewBox="0 0 420 320">
    <path d="M52 88 132 34 212 75 292 34 372 88V278L292 233 212 278 132 233 52 278Z" fill="currentColor" opacity=".035"/>
    <g fill="none" stroke="currentColor" vector-effect="non-scaling-stroke">
      <path d="M52 88 132 34 212 75 292 34 372 88V278L292 233 212 278 132 233 52 278Z M132 34V233M212 75V278M292 34V233" stroke-width="1.25" stroke-linecap="round" stroke-linejoin="round"/>
      <path d="M90 52V290M322 52V290" stroke-width="1" stroke-dasharray="3 7" opacity=".62"/>
    </g>
    <path d="M32 226H114V188H199V145H286V105H404" fill="none" stroke="#FFFFFF" stroke-width="1.8" stroke-linecap="round" stroke-linejoin="round" vector-effect="non-scaling-stroke"/>
    <circle cx="114" cy="188" r="3" fill="#FFFFFF"/>
    <circle cx="286" cy="105" r="6" fill="#C9821F"/>
  </symbol>

  <symbol id="motif-perspective" viewBox="0 0 420 320">
    <path d="M52 88 132 34 212 75 292 34 372 88V278L292 233 212 278 132 233 52 278Z" fill="currentColor" opacity=".035"/>
    <g fill="none" stroke="currentColor" vector-effect="non-scaling-stroke">
      <path d="M52 88 132 34 212 75 292 34 372 88V278L292 233 212 278 132 233 52 278Z M132 34V233M212 75V278M292 34V233" stroke-width="1.25" stroke-linecap="round" stroke-linejoin="round"/>
      <path d="M12 120H404M12 174H404M12 228H404" stroke-width="1" stroke-dasharray="3 7" opacity=".62"/>
    </g>
    <path d="M8 238H92V192H174V154H252V116H326" fill="none" stroke="#FFFFFF" stroke-width="1.8" stroke-linecap="round" stroke-linejoin="round" vector-effect="non-scaling-stroke"/>
    <path d="M326 116H379" fill="none" stroke="#FFFFFF" stroke-width="1.8" stroke-linecap="round" stroke-dasharray="3 7" vector-effect="non-scaling-stroke"/>
    <circle cx="92" cy="192" r="3" fill="#FFFFFF"/>
    <circle cx="174" cy="154" r="3" fill="#FFFFFF"/>
    <circle cx="252" cy="116" r="3" fill="#FFFFFF"/>
    <circle cx="379" cy="116" r="6" fill="#C9821F"/>
  </symbol>

  <symbol id="motif-guide" viewBox="0 0 420 320">
    <path d="M52 88 132 34 212 75 292 34 372 88V278L292 233 212 278 132 233 52 278Z" fill="currentColor" opacity=".035"/>
    <g fill="none" stroke="currentColor" vector-effect="non-scaling-stroke">
      <path d="M52 88 132 34 212 75 292 34 372 88V278L292 233 212 278 132 233 52 278Z M132 34V233M212 75V278M292 34V233" stroke-width="1.25" stroke-linecap="round" stroke-linejoin="round"/>
      <path d="M30 106H390M30 260H390" stroke-width="1" stroke-dasharray="3 7" opacity=".62"/>
    </g>
    <path d="M20 228H108V184H198V142H282V104H396" fill="none" stroke="#FFFFFF" stroke-width="1.8" stroke-linecap="round" stroke-linejoin="round" vector-effect="non-scaling-stroke"/>
    <circle cx="108" cy="184" r="3" fill="#FFFFFF"/>
    <circle cx="198" cy="142" r="3" fill="#FFFFFF"/>
    <circle cx="282" cy="104" r="6" fill="#C9821F"/>
  </symbol>
</svg>
