<svg width="2880" height="1800" viewBox="0 0 2880 1800" fill="none" xmlns="http://www.w3.org/2000/svg">
  <defs>
    <linearGradient id="bg" x1="0" y1="0" x2="2880" y2="1800" gradientUnits="userSpaceOnUse">
      <stop offset="0%" stop-color="#03060B"/>
      <stop offset="52%" stop-color="#07101A"/>
      <stop offset="100%" stop-color="#03060B"/>
    </linearGradient>

    <linearGradient id="fillA" x1="0" y1="0" x2="1" y2="1">
      <stop offset="0%" stop-color="#0B1628"/>
      <stop offset="100%" stop-color="#163252"/>
    </linearGradient>

    <linearGradient id="fillB" x1="0" y1="0" x2="1" y2="1">
      <stop offset="0%" stop-color="#102038"/>
      <stop offset="100%" stop-color="#234A7E"/>
    </linearGradient>

    <linearGradient id="fillC" x1="0" y1="0" x2="1" y2="1">
      <stop offset="0%" stop-color="#132743"/>
      <stop offset="100%" stop-color="#315D93"/>
    </linearGradient>

    <style>
      .o1 { fill: none; stroke: #112542; stroke-width: 8; stroke-linejoin: miter; }
      .o2 { fill: none; stroke: #234778; stroke-width: 8; stroke-linejoin: miter; }
      .o3 { fill: none; stroke: #3F6EA1; stroke-width: 8; stroke-linejoin: miter; }
      .oc { fill: none; stroke: #8B6A47; stroke-width: 7; stroke-linejoin: miter; }

      .f1 { fill: url(#fillA); opacity: 0.52; }
      .f2 { fill: url(#fillB); opacity: 0.44; }
      .f3 { fill: url(#fillC); opacity: 0.34; }
    </style>
  </defs>

  <rect width="2880" height="1800" fill="url(#bg)"/>

  <g opacity="0.05">
    <path d="M0 1660L1020 650L1500 1010L2180 320L2880 810V1800H0V1660Z" fill="#0A1730"/>
  </g>

  <g id="hero-fill-layer">
    <path class="f1" d="M410 1730L1110 1030L1260 1180L560 1880L410 1730Z"/>
    <path class="f2" d="M980 1710L1640 1050L1790 1200L1130 1860L980 1710Z"/>
    <path class="f3" d="M1540 1560L2140 960L2290 1110L1690 1710L1540 1560Z"/>
  </g>

  <g id="hero-outline-back">
    <path class="o1" d="M130 1800L970 960L1060 1050L220 1890"/>
    <path class="o1" d="M390 1660L1230 820L1320 910L480 1750"/>
    <path class="o1" d="M720 1490L1560 650L1650 740L810 1580"/>
    <path class="o1" d="M1930 1090L2720 300L2810 390L2020 1180"/>
  </g>

  <g id="hero-outline-mid">
    <path class="o2" d="M250 1880L1180 950L1280 1050L350 1980"/>
    <path class="o2" d="M760 1810L1670 900L1770 1000L860 1910"/>
    <path class="o2" d="M1320 1690L2190 820L2290 920L1420 1790"/>
    <path class="o2" d="M2050 1550L2860 740L2960 840L2150 1650"/>
  </g>

  <g id="hero-outline-front">
    <path class="o3" d="M560 1910L1460 1010L1570 1120L670 2020"/>
    <path class="o3" d="M1110 1770L1960 920L2070 1030L1220 1880"/>
    <path class="o3" d="M1760 1650L2550 860L2660 970L1870 1760"/>
  </g>

  <g id="hero-accent-layer">
    <path class="oc" d="M1500 1420L2080 840L2170 930L1590 1510"/>
    <path class="oc" opacity="0.55" d="M2340 1690L2820 1210L2910 1300L2430 1780"/>
  </g>
</svg>
